<svg id="visual" viewBox="0 0 960 200" width="960" height="200" xmlns="http://www.w3.org/2000/svg" xmlns:xlink="http://www.w3.org/1999/xlink" version="1.1"><path d="M0 132L22.8 133.8C45.7 135.7 91.3 139.3 137 137.3C182.7 135.3 228.3 127.7 274 124.2C319.7 120.7 365.3 121.3 411.2 121.2C457 121 503 120 548.8 119.5C594.7 119 640.3 119 686 124.3C731.7 129.7 777.3 140.3 823 142.8C868.7 145.3 914.3 139.7 937.2 136.8L960 134L960 0L937.2 0C914.3 0 868.7 0 823 0C777.3 0 731.7 0 686 0C640.3 0 594.7 0 548.8 0C503 0 457 0 411.2 0C365.3 0 319.7 0 274 0C228.3 0 182.7 0 137 0C91.3 0 45.7 0 22.8 0L0 0Z" fill="#fa7268"></path><path d="M0 86L22.8 94.2C45.7 102.3 91.3 118.7 137 121.5C182.7 124.3 228.3 113.7 274 110.3C319.7 107 365.3 111 411.2 113.2C457 115.3 503 115.7 548.8 112.3C594.7 109 640.3 102 686 99C731.7 96 777.3 97 823 98.8C868.7 100.7 914.3 103.3 937.2 104.7L960 106L960 0L937.2 0C914.3 0 868.7 0 823 0C777.3 0 731.7 0 686 0C640.3 0 594.7 0 548.8 0C503 0 457 0 411.2 0C365.3 0 319.7 0 274 0C228.3 0 182.7 0 137 0C91.3 0 45.7 0 22.8 0L0 0Z" fill="#ef5f67"></path><path d="M0 65L22.8 64.2C45.7 63.3 91.3 61.7 137 61.3C182.7 61 228.3 62 274 68.7C319.7 75.3 365.3 87.7 411.2 91.3C457 95 503 90 548.8 85.2C594.7 80.3 640.3 75.7 686 73.3C731.7 71 777.3 71 823 75.5C868.7 80 914.3 89 937.2 93.5L960 98L960 0L937.2 0C914.3 0 868.7 0 823 0C777.3 0 731.7 0 686 0C640.3 0 594.7 0 548.8 0C503 0 457 0 411.2 0C365.3 0 319.7 0 274 0C228.3 0 182.7 0 137 0C91.3 0 45.7 0 22.8 0L0 0Z" fill="#e34c67"></path><path d="M0 61L22.8 58.7C45.7 56.3 91.3 51.7 137 52C182.7 52.3 228.3 57.7 274 56.3C319.7 55 365.3 47 411.2 48.7C457 50.3 503 61.7 548.8 63.3C594.7 65 640.3 57 686 52.7C731.7 48.3 777.3 47.7 823 46.3C868.7 45 914.3 43 937.2 42L960 41L960 0L937.2 0C914.3 0 868.7 0 823 0C777.3 0 731.7 0 686 0C640.3 0 594.7 0 548.8 0C503 0 457 0 411.2 0C365.3 0 319.7 0 274 0C228.3 0 182.7 0 137 0C91.3 0 45.7 0 22.8 0L0 0Z" fill="#d53867"></path><path d="M0 34L22.8 34.7C45.7 35.3 91.3 36.7 137 35.7C182.7 34.7 228.3 31.3 274 28.2C319.7 25 365.3 22 411.2 20.8C457 19.7 503 20.3 548.8 24.2C594.7 28 640.3 35 686 39.2C731.7 43.3 777.3 44.7 823 43.2C868.7 41.7 914.3 37.3 937.2 35.2L960 33L960 0L937.2 0C914.3 0 868.7 0 823 0C777.3 0 731.7 0 686 0C640.3 0 594.7 0 548.8 0C503 0 457 0 411.2 0C365.3 0 319.7 0 274 0C228.3 0 182.7 0 137 0C91.3 0 45.7 0 22.8 0L0 0Z" fill="#c62368"></path></svg>